<svg width="132" height="129" viewBox="0 0 132 129" fill="none" xmlns="http://www.w3.org/2000/svg">
<path d="M55.5771 125.007C55.3411 125.927 54.9249 126.696 54.3286 127.313C53.721 127.938 53.0086 128.359 52.1912 128.578C51.3626 128.803 50.5019 128.8 49.6092 128.571C48.5646 128.303 47.7182 127.8 47.0701 127.063C46.422 126.326 46.0631 125.444 45.9936 124.417L48.1497 124.971C48.2493 125.472 48.4669 125.885 48.8025 126.209C49.1291 126.531 49.5468 126.757 50.0557 126.887C50.6003 127.027 51.1201 127.023 51.6151 126.874C52.0989 126.731 52.5209 126.459 52.8811 126.057C53.2324 125.652 53.4883 125.137 53.6487 124.512C53.8069 123.896 53.8306 123.322 53.7199 122.789C53.5981 122.263 53.3606 121.817 53.0074 121.45C52.643 121.09 52.1886 120.84 51.644 120.7C51.1351 120.57 50.66 120.567 50.2188 120.691C49.7664 120.823 49.3758 121.084 49.0469 121.475L46.8908 120.922C47.4485 120.047 48.189 119.442 49.1121 119.108C50.0241 118.781 51.0068 118.752 52.0603 119.023C52.9531 119.252 53.7095 119.66 54.3295 120.248C54.9383 120.842 55.3597 121.554 55.5937 122.385C55.8187 123.214 55.8132 124.088 55.5771 125.007Z" fill="#14150D"/>
<path d="M37.5504 113.035C38.3295 113.492 38.9376 114.094 39.3749 114.843C39.8121 115.591 40.0326 116.399 40.0363 117.267C40.0353 118.143 39.7946 118.99 39.314 119.809C38.8382 120.62 38.2205 121.235 37.4611 121.655C36.6969 122.083 35.8816 122.288 35.0152 122.272C34.1487 122.255 33.3259 122.018 32.5469 121.56C31.7599 121.099 31.1517 120.496 30.7224 119.752C30.2852 119.004 30.071 118.194 30.08 117.323C30.0763 116.455 30.3123 115.616 30.7882 114.805C31.2687 113.986 31.8911 113.363 32.6552 112.935C33.4067 112.51 34.2157 112.307 35.0822 112.323C35.9486 112.34 36.7714 112.577 37.5504 113.035ZM36.6757 114.525C36.1749 114.231 35.6684 114.084 35.1562 114.082C34.6393 114.089 34.1499 114.24 33.688 114.535C33.2261 114.831 32.8319 115.256 32.5053 115.813C32.1787 116.369 32.0015 116.917 31.9735 117.457C31.9409 118.004 32.05 118.501 32.301 118.947C32.5519 119.394 32.9278 119.764 33.4286 120.058C33.9295 120.352 34.4399 120.502 34.9601 120.508C35.4723 120.509 35.9594 120.362 36.4212 120.067C36.8785 119.779 37.2704 119.357 37.597 118.801C37.9235 118.245 38.1031 117.693 38.1357 117.145C38.1684 116.598 38.0615 116.097 37.8153 115.643C37.5564 115.192 37.1765 114.819 36.6757 114.525Z" fill="#14150D"/>
<path d="M22.6233 100.649L23.9577 102.051L22.1819 109.792L26.9793 105.226L28.3137 106.628L21.313 113.291L19.9786 111.889L21.7644 104.139L16.957 108.714L15.6226 107.312L22.6233 100.649Z" fill="#14150D"/>
<path d="M6.62676 93.4222L7.99881 92.675L9.22879 94.9334L16.3319 91.0649L17.2577 92.7648L10.1546 96.6333L11.3846 98.8917L10.0125 99.639L6.62676 93.4222Z" fill="#14150D"/>
<path d="M9.16621 76.8289L10.0677 80.5654L12.0044 80.7523L12.4811 82.7281L2.27234 81.6212L1.74378 79.4304L10.3247 73.7902L10.8046 75.7794L9.16621 76.8289ZM7.78411 77.7028L4.18702 80.0072L8.43913 80.4178L7.78411 77.7028Z" fill="#14150D"/>
<path d="M4.72792 66.9405C3.77939 66.9 2.94122 66.652 2.21339 66.1965C1.47674 65.7314 0.916946 65.1217 0.534011 64.3673C0.142259 63.6033 -0.0339501 62.7608 0.00538336 61.8399C0.0514035 60.7625 0.367989 59.8303 0.955139 59.0435C1.54229 58.2568 2.33082 57.7231 3.32074 57.4424L3.22575 59.6664C2.75586 59.8677 2.39715 60.1661 2.14962 60.5615C1.90248 60.9476 1.76771 61.4031 1.74528 61.9281C1.72129 62.4898 1.83338 62.9974 2.08156 63.4508C2.32093 63.8947 2.67473 64.2511 3.14298 64.5202C3.61162 64.7801 4.16825 64.9238 4.81288 64.9513C5.44829 64.9785 6.01515 64.8828 6.51345 64.6642C7.00294 64.436 7.39046 64.1112 7.676 63.6898C7.95273 63.2588 8.1031 62.7624 8.12709 62.2006C8.14951 61.6757 8.05406 61.2104 7.84075 60.8045C7.61863 60.3891 7.28206 60.0611 6.83105 59.8204L6.92604 57.5964C7.89763 57.9608 8.64239 58.56 9.16032 59.394C9.66942 60.2184 9.90077 61.1739 9.85436 62.2606C9.81502 63.1815 9.57223 64.006 9.12596 64.7343C8.67088 65.4529 8.06114 66.0127 7.29673 66.4136C6.53271 66.8054 5.67644 66.981 4.72792 66.9405Z" fill="#14150D"/>
<path d="M4.02967 41.9006L5.52007 42.3692L4.74868 44.8224L12.4645 47.2486L11.8839 49.0951L4.16807 46.6689L3.39669 49.1222L1.90629 48.6535L4.02967 41.9006Z" fill="#14150D"/>
<path d="M20.7774 16.3761L27.8959 22.8923L26.5889 24.32L21.9588 20.0817L24.8432 26.2271L23.8536 27.3082L17.4685 24.9872L22.0986 29.2255L20.7916 30.6533L13.6731 24.1371L15.1574 22.5155L22.5229 25.0966L19.3024 17.9875L20.7774 16.3761Z" fill="#14150D"/>
<path d="M30.9613 10.6145L32.2442 12.6659L34.999 10.9432L35.8127 12.2444L33.0579 13.9671L34.4141 16.1358L37.5206 14.1931L38.3563 15.5295L33.6086 18.4985L28.4845 10.3044L33.2321 7.33543L34.0678 8.67181L30.9613 10.6145Z" fill="#14150D"/>
<path d="M55.0788 6.68538C54.7344 6.74925 54.4021 6.72651 54.0818 6.61716C53.7598 6.49875 53.4859 6.31051 53.2599 6.05243C53.043 5.79268 52.9026 5.49061 52.8387 5.14622C52.7732 4.79277 52.7951 4.45591 52.9044 4.13565C53.0228 3.8137 53.2119 3.54427 53.4717 3.32736C53.7297 3.10138 54.031 2.95646 54.3754 2.89259C54.7288 2.82704 55.0665 2.85347 55.3885 2.97188C55.7178 3.07955 55.9909 3.26326 56.2078 3.52301C56.4338 3.78109 56.5796 4.08685 56.6451 4.4403C56.709 4.78469 56.6817 5.11785 56.5633 5.4398C56.4539 5.76006 56.2657 6.03402 55.9986 6.26168C55.7388 6.47859 55.4322 6.61983 55.0788 6.68538Z" fill="#14150D"/>
<path d="M74.3753 3.89104C74.5809 2.96418 74.9715 2.18222 75.5471 1.54516C76.1338 0.901101 76.8319 0.45645 77.6417 0.211212C78.4624 -0.0410301 79.3226 -0.06734 80.2225 0.132282C81.2753 0.365839 82.1378 0.840409 82.8099 1.55599C83.482 2.27157 83.8698 3.14122 83.9731 4.16494L81.7999 3.68286C81.6838 3.18502 81.4527 2.7797 81.1067 2.4669C80.7696 2.1561 80.3446 1.9438 79.8317 1.83002C79.2828 1.70825 78.7634 1.72994 78.2736 1.89508C77.7948 2.05322 77.382 2.3393 77.0352 2.75333C76.6975 3.16935 76.4587 3.69232 76.319 4.32222C76.1812 4.94312 76.1765 5.51799 76.3046 6.04681C76.4438 6.56864 76.6959 7.00694 77.0609 7.36172C77.437 7.7095 77.8994 7.94427 78.4483 8.06604C78.9613 8.17983 79.4361 8.16716 79.873 8.02803C80.3208 7.8819 80.7026 7.60782 81.0184 7.2058L83.1916 7.68789C82.663 8.58087 81.9429 9.20949 81.0313 9.57373C80.1306 9.93098 79.1494 9.99183 78.0876 9.75627C77.1877 9.55665 76.4182 9.17353 75.7792 8.6069C75.1511 8.03326 74.7065 7.33509 74.4452 6.51239C74.193 5.69167 74.1697 4.81789 74.3753 3.89104Z" fill="#14150D"/>
<path d="M92.787 15.2629C91.9933 14.8316 91.3656 14.2493 90.904 13.5159C90.4423 12.7825 90.1953 11.9821 90.163 11.1149C90.1351 10.2395 90.3478 9.38477 90.801 8.55057C91.2499 7.72447 91.8469 7.08903 92.5921 6.64424C93.3417 6.19135 94.1498 5.95906 95.0163 5.94736C95.8829 5.93565 96.713 6.14543 97.5067 6.5767C98.3085 7.01236 98.9362 7.59469 99.3898 8.3237C99.8515 9.05711 100.092 9.85928 100.112 10.7302C100.144 11.5975 99.9361 12.4442 99.4872 13.2703C99.0339 14.1045 98.4325 14.748 97.6829 15.2009C96.9458 15.6501 96.144 15.8805 95.2774 15.8922C94.4109 15.9039 93.5807 15.6941 92.787 15.2629ZM93.6122 13.7443C94.1224 14.0216 94.6335 14.1524 95.1455 14.1369C95.6618 14.1132 96.146 13.9462 96.5979 13.6358C97.0498 13.3253 97.4298 12.8866 97.7378 12.3197C98.0459 11.7528 98.205 11.1993 98.2151 10.6594C98.2297 10.1113 98.1042 9.61828 97.8387 9.18027C97.5731 8.74227 97.1852 8.38465 96.675 8.10741C96.1648 7.83017 95.6496 7.69712 95.1295 7.70826C94.6176 7.7238 94.1356 7.88679 93.6837 8.19722C93.2362 8.49955 92.8584 8.93418 92.5504 9.50111C92.2424 10.068 92.0811 10.6255 92.0665 11.1736C92.0519 11.7217 92.1752 12.2187 92.4364 12.6649C92.71 13.1073 93.1019 13.4671 93.6122 13.7443Z" fill="#14150D"/>
<path d="M108.114 27.1494L106.734 25.792L108.254 17.9972L103.61 22.7185L102.23 21.3612L109.007 14.4713L110.387 15.8287L108.858 23.6334L113.512 18.9022L114.891 20.2595L108.114 27.1494Z" fill="#14150D"/>
<path d="M124.34 33.845L122.994 34.6371L121.69 32.4205L114.718 36.5211L113.737 34.8526L120.709 30.752L119.405 28.5354L120.752 27.7433L124.34 33.845Z" fill="#14150D"/>
<path d="M122.35 50.5129L121.325 46.8083L119.384 46.6852L118.842 44.7263L129.082 45.496L129.682 47.6681L121.292 53.5882L120.747 51.6159L122.35 50.5129ZM123.702 49.5939L127.221 47.1722L122.958 46.902L123.702 49.5939Z" fill="#14150D"/>
<path d="M127.112 60.2497C128.061 60.2589 128.907 60.4791 129.649 60.9104C130.401 61.3509 130.98 61.9419 131.388 62.6832C131.805 63.4339 132.009 64.2701 132 65.1918C131.989 66.2702 131.704 67.2122 131.143 68.018C130.582 68.8237 129.811 69.3831 128.831 69.6962L128.853 67.4703C129.316 67.2536 129.664 66.9436 129.899 66.5402C130.133 66.1462 130.253 65.6864 130.258 65.1611C130.263 64.5988 130.135 64.0952 129.872 63.6502C129.618 63.2145 129.252 62.8699 128.775 62.6164C128.299 62.3721 127.737 62.2468 127.092 62.2406C126.456 62.2344 125.893 62.3488 125.402 62.5837C124.92 62.8279 124.544 63.1653 124.272 63.5959C124.01 64.0358 123.876 64.5368 123.871 65.0991C123.865 65.6244 123.976 66.0864 124.203 66.485C124.438 66.8928 124.786 67.2096 125.244 67.4353L125.223 69.6612C124.24 69.329 123.476 68.7547 122.93 67.9382C122.394 67.1311 122.132 66.1837 122.142 65.0961C122.151 64.1744 122.367 63.3423 122.789 62.5998C123.22 61.8665 123.811 61.2869 124.562 60.861C125.312 60.4443 126.162 60.2405 127.112 60.2497Z" fill="#14150D"/>
<path d="M128.635 85.253L127.13 84.8337L127.82 82.3564L120.029 80.186L120.548 78.3214L128.34 80.4917L129.03 78.0144L130.535 78.4336L128.635 85.253Z" fill="#14150D"/>
<path d="M112.738 111.316L105.409 105.038L106.668 103.568L111.435 107.651L108.35 101.604L109.303 100.491L115.761 102.6L110.994 98.5169L112.253 97.0469L119.583 103.325L118.153 104.994L110.706 102.658L114.159 109.657L112.738 111.316Z" fill="#14150D"/>
<path d="M102.75 117.41L101.4 115.402L98.7034 117.215L97.8472 115.941L100.544 114.128L99.1168 112.006L96.076 114.05L95.1967 112.742L99.8439 109.618L105.235 117.638L100.588 120.762L99.709 119.454L102.75 117.41Z" fill="#14150D"/>
<path d="M78.7749 122.132C79.117 122.057 79.4499 122.069 79.7736 122.168C80.0993 122.275 80.3793 122.454 80.6137 122.705C80.839 122.957 80.9893 123.255 81.0645 123.597C81.1417 123.948 81.1309 124.285 81.0322 124.609C80.9244 124.935 80.7443 125.21 80.4919 125.435C80.2414 125.67 79.9451 125.825 79.603 125.9C79.2519 125.977 78.9135 125.962 78.5879 125.854C78.2552 125.757 77.9761 125.583 77.7508 125.33C77.5164 125.08 77.3606 124.779 77.2835 124.428C77.2083 124.086 77.2245 123.752 77.3323 123.426C77.431 123.102 77.6101 122.822 77.8696 122.586C78.1221 122.361 78.4238 122.209 78.7749 122.132Z" fill="#14150D"/>
</svg>
