<svg width="186" height="186" viewBox="0 0 186 186" fill="none" xmlns="http://www.w3.org/2000/svg">
<path d="M0.347736 93.3864C45.9398 96.7865 70.8222 99.4138 83.9589 93.0773C70.8222 86.5862 45.9398 89.3681 0.347736 92.7682C-0.115912 92.6136 -0.115912 93.3864 0.347736 93.3864Z" fill="#14150D"/>
<path d="M92.6136 0.347736C89.2135 45.9398 86.5862 70.8222 92.9227 83.9589C99.4138 70.8222 96.6319 45.9398 93.2318 0.347736C93.3864 -0.115912 92.6136 -0.115912 92.6136 0.347736Z" fill="#14150D"/>
<path d="M93.3864 185.652C96.7865 140.06 99.4138 115.178 93.0773 102.041C86.5862 115.178 89.3681 140.06 92.7682 185.652C92.6136 186.116 93.3864 186.116 93.3864 185.652Z" fill="#14150D"/>
<path d="M185.652 92.6136C140.06 89.3681 115.178 86.5862 102.041 93.0773C115.178 99.5683 140.06 96.7865 185.652 93.3864C186.116 93.3864 186.116 92.6136 185.652 92.6136Z" fill="#14150D"/>
<path d="M27.7029 158.761C62.322 128.933 81.9497 113.169 86.5862 99.4138C72.8313 104.05 57.0673 123.678 27.2393 158.297C26.9302 158.606 27.3939 159.07 27.7029 158.761Z" fill="#14150D"/>
<path d="M158.761 158.297C128.933 123.678 113.169 104.05 99.4138 99.4138C104.05 113.169 123.678 128.933 158.297 158.761C158.606 159.07 159.07 158.606 158.761 158.297Z" fill="#14150D"/>
<path d="M158.761 27.7029C159.07 27.3939 158.606 26.9302 158.297 27.2393C123.678 57.0673 104.05 72.8313 99.4138 86.5862C113.169 81.9497 128.933 62.322 158.761 27.7029Z" fill="#14150D"/>
<path d="M27.2393 27.7029C57.0673 62.322 72.8313 81.9497 86.5862 86.5862C81.9497 72.8313 62.322 57.0673 27.7029 27.2393C27.3939 26.9302 26.9302 27.3939 27.2393 27.7029Z" fill="#14150D"/>
<path d="M11.6298 61.7038C50.4217 80.0951 71.4404 91.0681 85.0407 89.8317C75.7678 79.786 52.8945 73.6041 11.7844 61.0856C11.4753 61.0856 11.1662 61.5492 11.6298 61.7038Z" fill="#14150D"/>
<path d="M124.296 11.6298C105.75 50.4217 94.9319 71.4404 96.0137 85.0407C106.059 75.7678 112.241 52.8945 124.76 11.7844C124.914 11.4753 124.451 11.1662 124.296 11.6298Z" fill="#14150D"/>
<path d="M61.0856 174.216C60.931 174.525 61.5492 174.834 61.7038 174.525C80.0951 135.733 91.0681 114.714 89.8317 101.114C79.786 110.232 73.7586 133.106 61.0856 174.216Z" fill="#14150D"/>
<path d="M174.37 124.296C135.578 105.905 114.56 94.9319 100.959 96.1683C110.232 106.214 133.106 112.396 174.216 124.914C174.525 124.914 174.834 124.451 174.37 124.296Z" fill="#14150D"/>
<path d="M13.3299 128.469C53.8218 114.096 76.3859 106.987 85.1953 96.4774C71.5949 95.8592 51.0399 107.759 13.0208 127.851C12.7117 128.005 13.0208 128.624 13.3299 128.469Z" fill="#14150D"/>
<path d="M128.469 172.67C114.096 132.178 106.987 109.614 96.4774 100.805C95.8592 114.56 107.759 134.96 127.851 172.979C128.005 173.288 128.624 172.979 128.469 172.67Z" fill="#14150D"/>
<path d="M172.67 57.531C132.178 71.904 109.614 79.0133 100.805 89.5226C114.56 90.1408 134.96 78.2405 172.979 58.1491C173.288 57.9946 172.979 57.3764 172.67 57.531Z" fill="#14150D"/>
<path d="M57.531 13.3299C71.904 53.8218 79.0133 76.3859 89.5226 85.1953C90.1408 71.4404 78.2405 51.0399 58.1491 13.0208C57.9946 12.7117 57.3764 13.0208 57.531 13.3299Z" fill="#14150D"/>
</svg>
