<svg width="212" height="212" viewBox="0 0 212 212" fill="blue" xmlns="http://www.w3.org/2000/svg">
<path d="M14.0048 106.968C10.2737 106.684 6.40362 106.389 2.38954 106.088C7.09118 105.735 11.5952 105.389 15.9097 105.058C34.5813 103.624 49.7034 102.463 61.9291 102.184C76.7227 101.847 87.1796 102.808 94.5082 106.083C87.1775 109.281 76.7189 110.242 61.9284 109.926C49.2899 109.656 33.5554 108.457 14.0048 106.968ZM105.032 14.0049C105.316 10.2738 105.611 6.40369 105.912 2.3896C106.265 7.09121 106.611 11.5952 106.942 15.9097C108.376 34.5813 109.537 49.7034 109.816 61.9291C110.153 76.7227 109.192 87.1796 105.917 94.5082C102.719 87.1775 101.758 76.7189 102.074 61.9284C102.344 49.2899 103.543 33.5555 105.032 14.0049ZM106.088 209.61C105.735 204.909 105.389 200.405 105.058 196.09C103.624 177.419 102.463 162.297 102.184 150.071C101.847 135.277 102.808 124.82 106.083 117.492C109.281 124.823 110.242 135.281 109.926 150.072C109.656 162.71 108.457 178.445 106.968 197.995C106.684 201.726 106.389 205.596 106.088 209.61ZM194.907 104.844C199.93 105.215 205.213 105.605 210.769 106.001C205.647 106.384 200.758 106.76 196.09 107.118C177.419 108.552 162.297 109.713 150.071 109.992C135.269 110.329 124.809 109.367 117.48 106.088C124.809 102.809 135.269 101.846 150.072 102.162C162.038 102.418 176.779 103.506 194.907 104.844ZM42.5228 170.886C39.3245 173.631 35.9912 176.491 32.5227 179.477C35.5087 176.009 38.3692 172.676 41.1137 169.477C53.507 155.036 63.5373 143.348 72.0996 134.398C82.3447 123.689 90.4236 116.973 97.8608 114.139C95.027 121.576 88.3109 129.655 77.602 139.9C68.6522 148.463 56.9643 158.493 42.5228 170.886ZM170.886 169.477C173.631 172.676 176.491 176.009 179.477 179.477C176.009 176.491 172.676 173.631 169.477 170.886C155.036 158.493 143.348 148.463 134.398 139.9C123.689 129.655 116.973 121.576 114.139 114.139C121.576 116.973 129.655 123.689 139.9 134.398C148.463 143.348 158.493 155.036 170.886 169.477ZM169.478 41.1137C172.676 38.3692 176.009 35.5087 179.477 32.5227C176.491 35.9912 173.631 39.3245 170.886 42.5228C158.493 56.9643 148.463 68.6522 139.9 77.602C129.655 88.3109 121.576 95.027 114.139 97.8608C116.973 90.4236 123.689 82.3447 134.398 72.0996C143.348 63.5373 155.036 53.507 169.478 41.1137ZM41.1138 42.5226C38.3692 39.3244 35.5088 35.9911 32.5227 32.5227C35.9911 35.5088 39.3244 38.3692 42.5226 41.1138C56.9641 53.507 68.6522 63.5373 77.602 72.0996C88.3109 82.3447 95.027 90.4236 97.8608 97.8608C90.4236 95.027 82.3447 88.3109 72.0996 77.602C63.5373 68.6522 53.507 56.9641 41.1138 42.5226ZM15.1235 70.6618C18.8181 71.7852 22.3802 72.8633 25.8125 73.9022C43.3358 79.2059 57.4787 83.4865 68.617 87.5335C81.6871 92.2825 90.5306 96.6809 95.8259 101.964C88.3671 102.328 78.8896 99.6026 66.0504 94.2863C55.5437 89.9357 42.8454 83.8775 27.2336 76.4294C23.3782 74.5901 19.3451 72.666 15.1235 70.6618ZM136.763 24.6522C138.089 21.8897 139.457 19.0384 140.867 16.0946C139.85 19.4431 138.869 22.6816 137.922 25.8122C132.618 43.3356 128.337 57.4786 124.29 68.617C119.545 81.6779 115.149 90.5181 109.871 95.8147C109.586 88.355 112.314 78.8791 117.626 66.0504C122.213 54.9709 128.701 41.453 136.763 24.6522ZM70.527 197.337C72.0477 192.396 73.4838 187.691 74.8498 183.216C79.7815 167.058 83.8007 153.89 87.5997 143.405C92.3288 130.352 96.6862 121.552 101.964 116.339C102.331 123.8 99.6053 133.28 94.2863 146.126C89.9357 156.632 83.8775 169.331 76.4294 184.943C74.5488 188.884 72.5797 193.012 70.527 197.337ZM184.766 135.571C188.622 137.41 192.655 139.334 196.877 141.338C193.182 140.215 189.62 139.137 186.188 138.098C168.665 132.794 154.521 128.514 143.383 124.466C130.313 119.718 121.469 115.319 116.174 110.036C123.633 109.672 133.11 112.397 145.95 117.714C156.456 122.064 169.155 128.122 184.766 135.571ZM16.3729 145.478C20.6809 143.199 24.7888 141.015 28.7088 138.931C43.9404 130.834 56.3361 124.244 66.6211 119.444C79.2297 113.56 88.5786 110.412 96.0259 110.437C90.9761 115.982 82.342 120.764 69.4992 126.082C58.8195 130.504 45.2916 135.274 28.5985 141.159C24.6975 142.535 20.6236 143.971 16.3729 145.478ZM145.478 195.627C143.059 191.055 140.748 186.711 138.549 182.578C130.626 167.688 124.168 155.551 119.444 145.445C113.558 132.852 110.408 123.5 110.437 115.974C115.982 121.024 120.764 129.658 126.082 142.501C130.504 153.181 135.274 166.708 141.159 183.402C142.535 187.303 143.971 191.376 145.478 195.627ZM145.98 197.03C145.979 197.029 145.978 197.027 145.977 197.025L145.98 197.03ZM197.03 66.0201C197.029 66.0211 197.027 66.0221 197.025 66.023L197.03 66.0201ZM195.627 66.5219C191.055 68.9406 186.711 71.2521 182.578 73.4509C167.688 81.3738 155.551 87.8318 145.445 92.5558C132.852 98.4423 123.5 101.592 115.974 101.563C121.024 96.018 129.658 91.236 142.501 85.9181C153.181 81.4958 166.709 76.7261 183.402 70.8404C187.303 69.4651 191.377 68.0289 195.627 66.5219ZM66.5219 16.3728C68.9406 20.9447 71.2522 25.2892 73.4509 29.4216C81.3738 44.3122 87.8318 56.4494 92.5558 66.5553C98.4423 79.1484 101.592 88.4997 101.563 96.0258C96.018 90.9761 91.236 82.342 85.9181 69.4992C81.4958 58.8193 76.7261 45.291 70.8404 28.5976C69.4651 24.6968 68.0289 20.6232 66.5219 16.3728Z" stroke="white" stroke-opacity="0.2"/>
</svg>
