<svg width="113" height="160" viewBox="0 0 113 160" fill="none" xmlns="http://www.w3.org/2000/svg">
<path d="M30.0633 2.75099C32.2216 0.538795 35.7784 0.538796 37.9367 2.75099L42.8762 7.81382C44.8256 9.81184 47.833 10.3421 50.3482 9.13132L56.7214 6.06324C59.5062 4.72264 62.8485 5.93915 64.12 8.75612L67.0301 15.203C68.1785 17.7473 70.8232 19.2742 73.6008 18.9966L80.639 18.2933C83.7143 17.986 86.439 20.2723 86.6704 23.3543L87.2 30.4077C87.409 33.1913 89.3719 35.5307 92.077 36.2198L98.9312 37.9662C101.926 38.7292 103.705 41.8095 102.868 44.7848L100.953 51.594C100.198 54.2812 101.242 57.1508 103.548 58.7236L109.392 62.7089C111.945 64.4503 112.563 67.9531 110.759 70.4628L106.631 76.2064C105.002 78.4731 105.002 81.5269 106.631 83.7936L110.759 89.5372C112.563 92.0469 111.945 95.5497 109.392 97.2911L103.548 101.276C101.242 102.849 100.198 105.719 100.953 108.406L102.868 115.215C103.705 118.19 101.926 121.271 98.9312 122.034L92.077 123.78C89.3719 124.469 87.409 126.809 87.2 129.592L86.6704 136.646C86.439 139.728 83.7143 142.014 80.639 141.707L73.6008 141.003C70.8232 140.726 68.1785 142.253 67.0301 144.797L64.12 151.244C62.8485 154.061 59.5062 155.277 56.7214 153.937L50.3482 150.869C47.833 149.658 44.8256 150.188 42.8762 152.186L37.9367 157.249C35.7784 159.461 32.2216 159.461 30.0633 157.249L25.1238 152.186C23.1744 150.188 20.167 149.658 17.6518 150.869L11.2786 153.937C8.49382 155.277 5.1515 154.061 3.87996 151.244L0.969921 144.797C-0.178513 142.253 -2.82318 140.726 -5.60078 141.003L-12.639 141.707C-15.7143 142.014 -18.439 139.728 -18.6704 136.646L-19.2 129.592C-19.409 126.809 -21.3719 124.469 -24.0769 123.78L-30.9312 122.034C-33.9262 121.271 -35.7046 118.19 -34.868 115.215L-32.9532 108.406C-32.1975 105.719 -33.242 102.849 -35.5482 101.276L-41.3918 97.2911C-43.9452 95.5497 -44.5628 92.0469 -42.759 89.5372L-38.6309 83.7936C-37.0017 81.5269 -37.0017 78.4731 -38.6309 76.2064L-42.759 70.4628C-44.5628 67.9531 -43.9452 64.4503 -41.3918 62.7089L-35.5482 58.7236C-33.242 57.1508 -32.1975 54.2812 -32.9532 51.594L-34.868 44.7848C-35.7046 41.8095 -33.9262 38.7292 -30.9312 37.9662L-24.0769 36.2198C-21.3719 35.5307 -19.409 33.1913 -19.2 30.4077L-18.6704 23.3543C-18.439 20.2723 -15.7143 17.986 -12.639 18.2933L-5.60078 18.9966C-2.82318 19.2742 -0.178513 17.7473 0.969921 15.203L3.87996 8.75612C5.1515 5.93914 8.49382 4.72264 11.2786 6.06324L17.6518 9.13132C20.167 10.3421 23.1744 9.81184 25.1238 7.81382L30.0633 2.75099Z" stroke="white" stroke-opacity="0.2"/>
</svg>
