<svg width="120" height="120" viewBox="0 0 120 120" fill="none" xmlns="http://www.w3.org/2000/svg">
<path d="M44.9318 110.321L41.6009 109.303L42.092 107.696L47.4504 109.333L44.3622 119.442L42.3347 118.822L44.9318 110.321Z" fill="black"/>
<path d="M31.3695 101.967C32.1876 102.523 32.8084 103.226 33.2319 104.075C33.6554 104.925 33.8376 105.824 33.7785 106.773C33.7138 107.73 33.3891 108.638 32.8045 109.498C32.2255 110.35 31.5058 110.977 30.6453 111.381C29.7791 111.793 28.8732 111.958 27.9275 111.877C26.9818 111.796 26.0999 111.477 25.2818 110.921C24.4553 110.359 23.8344 109.656 23.4193 108.812C22.9959 107.962 22.8207 107.062 22.8937 106.111C22.9528 105.162 23.2718 104.262 23.8508 103.41C24.4354 102.55 25.1608 101.914 26.027 101.502C26.8791 101.093 27.778 100.929 28.7237 101.01C29.6694 101.092 30.5513 101.411 31.3695 101.967ZM30.3052 103.532C29.7792 103.175 29.2364 102.976 28.6768 102.938C28.1114 102.907 27.5656 103.037 27.0394 103.326C26.5131 103.615 26.0514 104.052 25.654 104.636C25.2567 105.221 25.0231 105.807 24.9534 106.394C24.878 106.99 24.9611 107.541 25.2029 108.047C25.4447 108.553 25.8286 108.985 26.3546 109.343C26.8805 109.7 27.4275 109.901 27.9955 109.946C28.5552 109.984 29.0981 109.859 29.6243 109.57C30.1449 109.289 30.6039 108.856 31.0012 108.272C31.3985 107.688 31.6349 107.098 31.7103 106.502C31.7858 105.906 31.7054 105.351 31.4693 104.836C31.2192 104.324 30.8311 103.89 30.3052 103.532Z" fill="black"/>
<path d="M19.0992 90.0939C19.6821 90.8932 20.0299 91.7641 20.1425 92.7066C20.2551 93.6491 20.1238 94.557 19.7486 95.4303C19.3653 96.3096 18.7536 97.0556 17.9135 97.6684C17.0815 98.2751 16.1924 98.6236 15.2462 98.714C14.2918 98.8102 13.3832 98.6608 12.5202 98.2656C11.6572 97.8704 10.9342 97.2731 10.3512 96.4738C9.76233 95.6663 9.41455 94.7953 9.30792 93.861C9.19533 92.9185 9.33367 92.0117 9.72292 91.1406C10.0981 90.2672 10.7016 89.5272 11.5336 88.9204C12.3737 88.3077 13.271 87.9532 14.2253 87.857C15.1656 87.7585 16.0672 87.9068 16.9302 88.302C17.7932 88.6972 18.5162 89.2945 19.0992 90.0939ZM17.5698 91.2092C17.195 90.6954 16.7507 90.326 16.2368 90.101C15.7147 89.882 15.1572 89.82 14.5643 89.9151C13.9714 90.0101 13.3895 90.2658 12.8185 90.6823C12.2475 91.0987 11.8303 91.5716 11.5668 92.1012C11.2951 92.6367 11.1878 93.1835 11.245 93.7416C11.3021 94.2996 11.5181 94.8356 11.8928 95.3495C12.2676 95.8633 12.7149 96.2368 13.2348 96.4699C13.7487 96.6949 14.3021 96.7598 14.895 96.6648C15.4798 96.5757 16.0576 96.3229 16.6286 95.9065C17.1996 95.4901 17.6209 95.0142 17.8926 94.4787C18.1642 93.9432 18.2756 93.3934 18.2266 92.8294C18.1635 92.2631 17.9446 91.7231 17.5698 91.2092Z" fill="black"/>
<path d="M11.1291 73.7957L7.75299 78.8529L12.2559 77.4733L12.8769 79.5003L2.77079 82.5966L2.14974 80.5696L6.68157 79.1812L1.023 76.892L0.273311 74.4451L6.56051 77.0801L10.3439 71.233L11.1291 73.7957Z" fill="black"/>
<path d="M9.10314 47.3239L8.14845 51.424L9.95202 52.5592L9.4472 54.7272L0 48.6249L0.559767 46.2209L11.7309 44.9195L11.2227 47.1022L9.10314 47.3239ZM7.32082 47.4997L2.66742 47.9866L6.62712 50.4789L7.32082 47.4997Z" fill="black"/>
<path d="M9.56445 26.066L11.0225 26.9617L9.54823 29.3616L17.0965 33.9984L15.9868 35.8048L8.43857 31.168L6.96432 33.568L5.50628 32.6723L9.56445 26.066Z" fill="black"/>
<path d="M36.1957 4.41338L41.1059 13.7734L39.2285 14.7583L36.0348 8.67023L36.7209 16.0738L35.2995 16.8195L29.5847 12.0539L32.7784 18.142L30.901 19.1268L25.9908 9.76679L28.123 8.64827L34.751 14.0463L34.0769 5.52486L36.1957 4.41338Z" fill="black"/>
<path d="M55.5563 0L52.9758 7.32024L53.4877 10.9642L51.3883 11.2591L50.8764 7.61517L46.3639 1.29138L48.7332 0.958531L51.6546 5.42617L53.2169 0.328639L55.5563 0Z" fill="black"/>
<path d="M76.6166 13.7656C75.9254 13.5099 75.3442 13.1604 74.8732 12.7171C74.4116 12.2772 74.1021 11.7753 73.9448 11.2112C73.7875 10.6471 73.8162 10.0603 74.0309 9.45084L76.1612 10.2389C76.039 10.6565 76.062 11.031 76.2301 11.3622C76.4076 11.697 76.7236 11.9485 77.1781 12.1166C77.6421 12.2882 78.0469 12.3141 78.3925 12.1944C78.7417 12.0653 78.9828 11.8208 79.1159 11.461C79.2245 11.1675 79.2239 10.8928 79.114 10.6368C79.0042 10.3809 78.8312 10.1501 78.5952 9.94439C78.3721 9.73271 78.0483 9.47303 77.6239 9.16535C77.0501 8.73783 76.5929 8.35881 76.2524 8.02831C75.9247 7.69185 75.6825 7.2847 75.5255 6.80686C75.3816 6.32305 75.4252 5.7687 75.6563 5.14379C75.8735 4.55675 76.2094 4.09975 76.664 3.77278C77.1186 3.44581 77.6531 3.26677 78.2674 3.23566C78.8851 3.19509 79.5349 3.30088 80.2166 3.55305C81.2392 3.93131 81.9749 4.48868 82.4236 5.22515C82.8853 5.95567 82.9847 6.77819 82.7218 7.69273L80.5346 6.88369C80.6418 6.53582 80.5983 6.20222 80.4043 5.88288C80.2232 5.55758 79.9102 5.31262 79.4652 5.14801C79.077 5.00441 78.7278 4.98825 78.4175 5.09952C78.1167 5.2143 77.8963 5.46106 77.7562 5.83979C77.6581 6.1049 77.661 6.35893 77.7649 6.60187C77.8818 6.83885 78.047 7.06143 78.2606 7.26961C78.4872 7.47183 78.8109 7.73151 79.2318 8.04865C79.8056 8.47618 80.2611 8.85993 80.5981 9.19989C80.9352 9.53986 81.1805 9.9535 81.3339 10.4408C81.4873 10.9281 81.4502 11.4795 81.2226 12.0949C81.0264 12.6252 80.707 13.0667 80.2643 13.4196C79.8216 13.7725 79.2844 13.9882 78.6526 14.0667C78.0243 14.1357 77.3456 14.0353 76.6166 13.7656Z" fill="black"/>
<path d="M93.8996 12.8667L92.3081 14.9856L95.1536 17.1227L94.1442 18.4667L91.2987 16.3297L89.6163 18.5697L92.825 20.9796L91.7883 22.3599L86.8845 18.6769L93.2411 10.2132L98.145 13.8962L97.1083 15.2766L93.8996 12.8667Z" fill="black"/>
<path d="M100.662 32.2183L102.587 27.8942L101.993 27.0906L98.6812 29.5397L97.4207 27.8351L105.919 21.5505L108.278 24.7404C108.764 25.3979 109.061 26.045 109.168 26.6818C109.282 27.3125 109.225 27.8886 108.995 28.41C108.78 28.9335 108.429 29.3753 107.942 29.7355C107.381 30.1497 106.754 30.3625 106.059 30.3739C105.373 30.3794 104.707 30.1245 104.063 29.6093L102.121 34.1907L100.662 32.2183ZM103.271 26.1453L104.325 27.5698C104.667 28.0325 105.032 28.2964 105.419 28.3616C105.814 28.4208 106.211 28.3033 106.608 28.0092C106.998 27.7211 107.214 27.3854 107.257 27.002C107.308 26.6127 107.163 26.1867 106.821 25.724L105.767 24.2995L103.271 26.1453Z" fill="black"/>
<path d="M118.531 46.1499L107.276 45.8558L106.453 43.4165L115.229 36.3644L115.955 38.5166L108.921 43.9582L117.809 44.012L118.531 46.1499Z" fill="black"/>
<path d="M120 57.5637L109.454 58.279L109.311 56.1638L119.857 55.4485L120 57.5637Z" fill="black"/>
<path d="M114.771 66.3895C115.79 66.5967 116.654 67.0094 117.362 67.6275C118.079 68.2574 118.579 69.0134 118.864 69.8954C119.156 70.7893 119.201 71.7308 119 72.7201C118.764 73.8776 118.261 74.8312 117.491 75.581C116.72 76.3308 115.775 76.7722 114.656 76.9052L115.142 74.5161C115.685 74.3793 116.125 74.1184 116.46 73.7334C116.794 73.3583 117.018 72.8888 117.133 72.3249C117.256 71.7215 117.222 71.1532 117.032 70.6199C116.849 70.0986 116.528 69.6521 116.068 69.2804C115.606 68.9185 115.029 68.6672 114.336 68.5263C113.654 68.3875 113.024 68.3933 112.447 68.5439C111.879 68.7063 111.404 68.9909 111.022 69.3975C110.648 69.816 110.4 70.327 110.278 70.9304C110.163 71.4943 110.186 72.0141 110.347 72.4898C110.515 72.9774 110.823 73.3902 111.269 73.7282L110.783 76.1173C109.795 75.5558 109.093 74.7793 108.676 73.788C108.268 72.8086 108.182 71.7353 108.42 70.5679C108.621 69.5787 109.026 68.7286 109.634 68.0179C110.25 67.319 111.006 66.8186 111.902 66.5167C112.796 66.2246 113.752 66.1822 114.771 66.3895Z" fill="black"/>
<path d="M111.375 88.5157L109.064 87.2174L107.321 90.3196L105.856 89.4961L107.599 86.3938L105.157 85.0213L103.191 88.5195L101.686 87.6738L104.691 82.3274L113.918 87.5134L110.913 92.8598L109.408 92.014L111.375 88.5157Z" fill="black"/>
<path d="M94.304 96.4397C94.8337 95.9272 95.4003 95.5546 96.0038 95.3219C96.6001 95.0961 97.1866 95.0344 97.7632 95.1367C98.3398 95.239 98.8563 95.5189 99.3129 95.9762L97.6804 97.5556C97.3568 97.2647 97.0093 97.1233 96.6379 97.1315C96.2593 97.1466 95.8958 97.3227 95.5476 97.6596C95.1921 98.0036 94.9935 98.3573 94.9518 98.7207C94.9171 99.0914 95.0331 99.4146 95.2999 99.6903C95.5175 99.9152 95.7654 100.034 96.0436 100.045C96.3219 100.057 96.6048 100.001 96.8924 99.8772C97.1798 99.7677 97.554 99.5883 98.0151 99.3389C98.6488 99.0066 99.1884 98.7585 99.6338 98.5945C100.079 98.4448 100.551 98.4026 101.049 98.468C101.548 98.5476 102.029 98.8268 102.492 99.3057C102.927 99.7555 103.194 100.256 103.292 100.807C103.39 101.359 103.32 101.918 103.082 102.485C102.851 103.06 102.475 103.6 101.952 104.105C101.169 104.863 100.348 105.285 99.4898 105.371C98.6314 105.471 97.8469 105.205 97.1362 104.572L98.8122 102.95C99.0794 103.197 99.399 103.303 99.7708 103.266C100.142 103.244 100.499 103.067 100.84 102.737C101.137 102.45 101.303 102.142 101.337 101.814C101.364 101.493 101.237 101.188 100.956 100.897C100.759 100.694 100.529 100.587 100.265 100.575C100.001 100.578 99.7287 100.631 99.4485 100.733C99.1682 100.85 98.7939 101.029 98.3259 101.272C97.6921 101.604 97.1491 101.848 96.6967 102.005C96.2443 102.162 95.7653 102.204 95.2596 102.131C94.7539 102.059 94.2729 101.787 93.8166 101.315C93.4235 100.909 93.1637 100.43 93.0371 99.8778C92.9106 99.326 92.9487 98.7483 93.1514 98.1448C93.3612 97.5486 93.7454 96.9802 94.304 96.4397Z" fill="black"/>
<path d="M75.093 111.293C75.4599 111.181 75.8243 111.165 76.1864 111.244C76.5514 111.333 76.8728 111.504 77.1506 111.757C77.4188 112.013 77.6089 112.324 77.721 112.691C77.836 113.068 77.8539 113.437 77.7745 113.799C77.6854 114.164 77.5129 114.48 77.2571 114.749C77.0042 115.026 76.6943 115.221 76.3274 115.334C75.9508 115.449 75.5801 115.462 75.2151 115.372C74.8434 115.296 74.5234 115.13 74.2553 114.874C73.9774 114.621 73.781 114.306 73.666 113.93C73.5539 113.563 73.5424 113.197 73.6314 112.832C73.7108 112.47 73.8818 112.149 74.1444 111.868C74.4002 111.6 74.7164 111.408 75.093 111.293Z" fill="black"/>
</svg>
