<svg width="340" height="692" viewBox="0 0 340 692" fill="none" xmlns="http://www.w3.org/2000/svg">
<path d="M315.152 0.363291C313.978 0.246979 314.532 1.41795 317.168 3.85938C325.864 11.9145 331.264 23.5735 331.264 36.5508V346.123V655.695C331.264 668.673 325.864 680.332 317.168 688.387C314.532 690.828 313.978 691.999 315.152 691.883C315.857 691.813 317.184 691.28 319.056 690.281C331.766 683.501 339.146 668.873 339.146 653.336V346.123V38.9102C339.146 23.3734 331.766 8.74522 319.056 1.96485C317.184 0.96611 315.857 0.433078 315.152 0.363291Z" fill="url(#paint0_linear_1434_1079)"/>
<path d="M24.8479 0.363289C26.0225 0.246993 25.468 1.41795 22.8323 3.85938C14.1361 11.9145 8.73657 23.5735 8.73657 36.5508V346.123V655.695C8.73657 668.673 14.1361 680.332 22.8323 688.387C25.468 690.828 26.0225 691.999 24.8479 691.883C24.1432 691.813 22.8157 691.28 20.9436 690.281C8.23411 683.501 0.85376 668.873 0.85376 653.336V346.123V38.9102C0.85376 23.3734 8.23412 8.74522 20.9436 1.96485C22.8157 0.966109 24.1432 0.433074 24.8479 0.363289Z" fill="url(#paint1_linear_1434_1079)"/>
<defs>
<linearGradient id="paint0_linear_1434_1079" x1="330.224" y1="346.123" x2="339.146" y2="346.123" gradientUnits="userSpaceOnUse">
<stop stop-color="#404040"/>
<stop offset="0.6" stop-color="#838383"/>
<stop offset="1" stop-color="#A7A7A7"/>
</linearGradient>
<linearGradient id="paint1_linear_1434_1079" x1="9.77583" y1="346.123" x2="0.853771" y2="346.123" gradientUnits="userSpaceOnUse">
<stop stop-color="#404040"/>
<stop offset="0.6" stop-color="#838383"/>
<stop offset="1" stop-color="#A7A7A7"/>
</linearGradient>
</defs>
</svg>
