<svg width="157" height="95" viewBox="0 0 157 95" fill="none" xmlns="http://www.w3.org/2000/svg">
<path opacity="0.2" d="M123.076 21.2664L122.323 22.0244L123.387 22.1168C131.562 22.8267 139.592 26.233 145.931 32.6185C160.023 46.812 160.023 69.6628 145.931 83.8564C131.842 98.0479 109.162 98.0479 95.0726 83.8564C81.6876 70.3743 81.1228 48.9422 93.241 34.7491L93.54 34.3989L93.4225 34.2806L122.928 4.56091C127.615 -0.160118 135.177 -0.275215 140.004 4.21562L123.076 21.2664ZM56.0085 3.78396L39.0804 20.8348L38.3278 21.5928L39.3919 21.6852C47.5672 22.3951 55.5967 25.8013 61.9362 32.1868C76.0276 46.3803 76.0276 69.2312 61.9362 83.4247C47.8469 97.6162 25.1667 97.6162 11.0774 83.4247C-2.3078 69.9425 -3.01268 48.5155 9.09634 34.3251L11.0834 32.1807L38.9329 4.12925C43.62 -0.591782 51.1813 -0.706879 56.0085 3.78396Z" stroke="white"/>
</svg>
