<svg width="158" height="160" viewBox="0 0 158 160" fill="none" xmlns="http://www.w3.org/2000/svg">
<path d="M74.7054 2.40182C77.0599 -0.0114825 80.9401 -0.011481 83.2946 2.40183L88.2341 7.46465C90.0335 9.30898 92.8096 9.79847 95.1313 8.68081L101.505 5.61272C104.542 4.15025 108.189 5.47735 109.576 8.55041L112.486 14.9973C113.546 17.3459 115.987 18.7553 118.551 18.4991L125.589 17.7958C128.944 17.4606 131.917 19.9547 132.169 23.3169L132.699 30.3703C132.892 32.9398 134.703 35.0992 137.2 35.7353L144.055 37.4817C147.322 38.3141 149.262 41.6744 148.349 44.9202L146.435 51.7293C145.737 54.2098 146.701 56.8587 148.83 58.3105L154.674 62.2958C157.459 64.1955 158.133 68.0168 156.165 70.7546L152.037 76.4982C150.533 78.5906 150.533 81.4094 152.037 83.5018L156.165 89.2454C158.133 91.9832 157.459 95.8045 154.674 97.7042L148.83 101.689C146.701 103.141 145.737 105.79 146.435 108.271L148.349 115.08C149.262 118.326 147.322 121.686 144.055 122.518L137.2 124.265C134.703 124.901 132.892 127.06 132.699 129.63L132.169 136.683C131.917 140.045 128.944 142.539 125.589 142.204L118.551 141.501C115.987 141.245 113.546 142.654 112.486 145.003L109.576 151.45C108.189 154.523 104.542 155.85 101.505 154.387L95.1313 151.319C92.8096 150.202 90.0335 150.691 88.2341 152.535L83.2946 157.598C80.9401 160.011 77.0599 160.011 74.7054 157.598L69.7659 152.535C67.9665 150.691 65.1904 150.202 62.8687 151.319L56.4955 154.387C53.4575 155.85 49.8114 154.523 48.4242 151.45L45.5142 145.003C44.4541 142.654 42.0129 141.245 39.4489 141.501L32.4107 142.204C29.0558 142.539 26.0834 140.045 25.831 136.683L25.3014 129.63C25.1085 127.06 23.2966 124.901 20.7996 124.265L13.9453 122.518C10.6781 121.686 8.73798 118.326 9.6507 115.08L11.5655 108.271C12.263 105.79 11.2989 103.141 9.17012 101.689L3.32647 97.7042C0.540963 95.8045 -0.13282 91.9832 1.83496 89.2454L5.96313 83.5018C7.46698 81.4094 7.46698 78.5906 5.96313 76.4982L1.83496 70.7546C-0.132821 68.0168 0.540965 64.1955 3.32647 62.2958L9.17012 58.3105C11.2989 56.8587 12.263 54.2098 11.5655 51.7293L9.6507 44.9202C8.73798 41.6744 10.6781 38.3141 13.9453 37.4817L20.7996 35.7353C23.2966 35.0992 25.1085 32.9398 25.3014 30.3703L25.831 23.3169C26.0834 19.9547 29.0558 17.4606 32.4107 17.7958L39.4489 18.4991C42.0129 18.7553 44.4541 17.3459 45.5142 14.9973L48.4242 8.55041C49.8114 5.47735 53.4575 4.15025 56.4955 5.61272L62.8687 8.68081C65.1904 9.79847 67.9665 9.30898 69.7659 7.46465L74.7054 2.40182Z" fill="#E7FA71"/>
</svg>
