<?xml version="1.0" encoding="UTF-8"?>
<svg id="Layer_2" data-name="Layer 2" xmlns="http://www.w3.org/2000/svg" viewBox="0 0 308.15 84.18">
  <defs>
    <style>
      .cls-1 {
        fill: #fff;
      }
    </style>
  </defs>
  <g id="Layer_1-2" data-name="Layer 1">
    <g>
      <path class="cls-1" d="m44.68,20.5c-1.27,0-1.73.46-1.73,1.73v57.46c0,1.96-.81,2.99-2.99,2.99h-14.05c-1.96,0-2.99-1.04-2.99-2.99V22.23c0-1.27-.46-1.73-1.73-1.73H2.99c-1.96,0-2.99-1.04-2.99-2.99V5.07c0-2.19,1.04-2.99,2.99-2.99h59.88c2.19,0,2.99.81,2.99,2.99v12.44c0,1.96-.81,2.99-2.99,2.99h-18.19Z"/>
      <path class="cls-1" d="m77.96,82.68h-14.05c-1.73,0-2.53-.58-2.53-1.61,0-.69.23-1.38.58-2.07L98.69,5.87c2.19-4.49,3.45-5.87,5.3-5.87s2.99,1.38,5.3,5.87l36.97,73.12c.35.69.58,1.38.58,1.96,0,1.15-.92,1.73-2.65,1.73h-14.74c-2.88,0-4.03-.81-5.41-3.69l-20.38-41.92-20.15,41.92c-1.38,2.88-2.65,3.69-5.53,3.69Z"/>
      <path class="cls-1" d="m91.08,82.68c-.56,0-.82-.19-.82-.52,0-.22.07-.45.19-.67l11.9-23.69c.71-1.46,1.12-1.9,1.72-1.9s.97.45,1.72,1.9l11.98,23.69c.11.22.19.45.19.63,0,.37-.3.56-.86.56h-26.01Z"/>
      <path class="cls-1" d="m157.99,82.68c-1.96,0-2.99-1.04-2.99-2.99V5.07c0-2.19,1.04-2.99,2.99-2.99h13.93c2.19,0,3.11.81,3.11,2.99v74.62c0,2.19-.92,2.99-3.11,2.99h-13.93ZM224.09,2.07c1.61,0,2.42.58,2.42,1.61,0,.46-.23,1.04-.69,1.73l-26.72,35.81,27.87,38.12c.58.58.81,1.27.81,1.84,0,.92-1.04,1.5-2.53,1.5h-16.7c-3.11,0-4.03-.58-5.76-2.99l-24.76-35.12c-.69-1.04-1.04-1.96-1.04-2.65,0-.81.35-1.73,1.15-2.76l24.07-33.97c1.73-2.65,2.76-3.11,5.64-3.11h16.24Z"/>
      <path class="cls-1" d="m235.26,48.14V5.07c0-2.19,1.04-2.99,2.99-2.99h13.93c2.19,0,3.11.81,3.11,2.99v41.46c0,12.44,5.64,19.23,16.35,19.23s16.47-6.79,16.47-19.23V5.07c0-2.19,1.04-2.99,2.99-2.99h13.93c2.19,0,3.11.81,3.11,2.99v42.84c0,23.84-15.09,36.27-37.2,36.27s-35.7-11.75-35.7-36.04Z"/>
    </g>
  </g>
</svg>