<?xml version="1.0" encoding="UTF-8"?>
<svg id="Layer_2" data-name="Layer 2" xmlns="http://www.w3.org/2000/svg" viewBox="0 0 382.22 127.43">
  <defs>
    <style>
      .cls-1 {
        fill: #fff;
      }

      .cls-2 {
        fill: #d1d3d4;
      }

      .cls-3 {
        fill: #e6e7e8;
      }
    </style>
  </defs>
  <g id="Layer_1-2" data-name="Layer 1">
    <g>
      <g>
        <path class="cls-1" d="m152.03,106.84h-14.05c-1.73,0-2.53-.58-2.53-1.61,0-.69.23-1.38.58-2.07l36.73-73.12c2.19-4.49,3.45-5.87,5.3-5.87s2.99,1.38,5.3,5.87l36.97,73.12c.35.69.58,1.38.58,1.96,0,1.15-.92,1.73-2.65,1.73h-14.74c-2.88,0-4.03-.81-5.41-3.69l-20.38-41.92-20.15,41.92c-1.38,2.88-2.65,3.69-5.53,3.69Z"/>
        <path class="cls-1" d="m165.15,106.84c-.56,0-.82-.19-.82-.52,0-.22.07-.45.19-.67l11.9-23.69c.71-1.46,1.12-1.9,1.72-1.9s.97.45,1.72,1.9l11.98,23.69c.11.22.19.45.19.63,0,.37-.3.56-.86.56h-26.01Z"/>
        <path class="cls-1" d="m232.06,106.84c-1.96,0-2.99-1.04-2.99-2.99V29.22c0-2.19,1.04-2.99,2.99-2.99h13.93c2.19,0,3.11.81,3.11,2.99v74.62c0,2.19-.92,2.99-3.11,2.99h-13.93Zm66.1-80.61c1.61,0,2.42.58,2.42,1.61,0,.46-.23,1.04-.69,1.73l-26.72,35.81,27.87,38.12c.58.58.81,1.27.81,1.84,0,.92-1.04,1.5-2.53,1.5h-16.7c-3.11,0-4.03-.58-5.76-2.99l-24.76-35.12c-.69-1.04-1.04-1.96-1.04-2.65,0-.81.35-1.73,1.15-2.76l24.07-33.97c1.73-2.65,2.76-3.11,5.64-3.11h16.24Z"/>
        <path class="cls-1" d="m309.33,72.29V29.22c0-2.19,1.04-2.99,2.99-2.99h13.93c2.19,0,3.11.81,3.11,2.99v41.46c0,12.44,5.64,19.23,16.35,19.23s16.47-6.79,16.47-19.23V29.22c0-2.19,1.04-2.99,2.99-2.99h13.93c2.19,0,3.11.81,3.11,2.99v42.84c0,23.84-15.09,36.27-37.2,36.27s-35.7-11.75-35.7-36.04Z"/>
      </g>
      <g>
        <path class="cls-1" d="m80.11,1.65h-20.81C30.79,1.65,0,24.76,0,53.28h0c0,1.02.82,1.84,1.84,1.84h47.21c.85,0,1.53-.69,1.51-1.54-.12-7.73.96-42.34,29.61-51.51.24-.08.19-.43-.06-.43Z"/>
        <path class="cls-1" d="m93.21,105.63v-34.17c0-2.01-1.63-3.63-3.63-3.63h-19.69c-2.65,0-4.79-2.15-4.79-4.79v-2.24c0-6.72,2.69-13.21,7.62-17.78.79-.73,1.63-1.41,2.5-1.99.68-.45,1.05-1.24.99-2.05-.18-2.39-.36-7.52.8-12.55.07-.3-.07-.61-.34-.77-1.11-.66-1.86-1.87-1.86-3.26,0-2.08,1.69-3.78,3.78-3.78s3.78,1.69,3.78,3.78c0,1.87-1.35,3.42-3.12,3.73-.27.05-.49.25-.55.51-.97,4.3-.71,9.92-.55,12.1.03.38.47.58.77.35.54-.43,1.36-1.03,2.29-1.61.75-.46,1.24-1.25,1.3-2.12l.35-4.95c.03-.39.24-.75.57-.96l1.95-1.26c.41-.27.96.02.98.51l.02.52c0,.22-.1.43-.29.56l-1.31.86c-.18.12-.3.32-.31.54l-.11,2.78c-.01.32.37.5.6.28.93-.88,2.75-2.54,4.57-3.8.82-.57,1.41-1.42,1.65-2.39l1.35-5.61c.09-.37.09-.76,0-1.14l-1.3-5.21c-.3-1.21-.11-2.5.54-3.57l2.27-3.74c-.54-.55-.87-1.27-.87-2.06,0-1.73,1.58-3.13,3.53-3.13s3.53,1.4,3.53,3.13-1.58,3.13-3.53,3.13c-.31,0-.62-.04-.91-.11l-1.94,2.93c-.46.7-.6,1.56-.39,2.37l1.56,5.93c.14.53.14,1.09-.01,1.62l-1.13,4.02c-.1.37.3.67.62.46,1.92-1.24,6.49-4.15,10.04-6,.34-.18.53-.55.5-.94,0-.11-.01-.22-.01-.33,0-3.2,3.18-5.79,7.1-5.79s7.1,2.59,7.1,5.79-3.18,5.79-7.1,5.79c-1.99,0-3.8-.67-5.09-1.75-.28-.24-.68-.28-1-.11-1.3.7-2.9,1.59-4.01,2.21-.37.2-.23.76.19.77,4.57.13,11.62,1.07,15.08,1.56,1.25.18,2.49-.31,3.3-1.28,2.69-3.23,5.36-5.08,6.79-5.94.29-.17.44-.52.38-.85-.04-.19-.06-.39-.06-.59,0-1.88,1.71-3.36,3.65-2.98,1.18.23,2.13,1.18,2.37,2.37.38,1.94-1.1,3.64-2.98,3.64-.46,0-.89-.1-1.28-.28-.22-.1-.47-.09-.68.01-2.48,1.18-5.41,4.36-7.21,6.51-1.06,1.27-2.7,1.9-4.33,1.65-7.26-1.08-16.26-1.44-18.81-1.53-.5-.02-1,.09-1.44.33-3.64,1.9-9.73,7.65-11.81,9.66-.27.26-.08.71.29.71h8c.75,0,1.47-.26,2.05-.72l3.32-2.66c.23-.18.31-.49.21-.76-.19-.51-.26-1.08-.2-1.67.18-1.76,1.62-3.2,3.38-3.37,2.46-.24,4.5,1.89,4.11,4.38-.24,1.54-1.45,2.8-2.99,3.09-.91.17-1.78.02-2.5-.36-.24-.13-.52-.1-.73.07l-3.87,3.08c-.61.49-1.37.75-2.16.75h-11.1c-5.67,0-10.51,8.59-12.2,11.97-.31.62.14,1.35.84,1.35h12.67c3.66,0,7.11-1.74,9.29-4.7l2.68-3.64c.7-.95,1.81-1.51,2.99-1.51h4.55c.5,0,.95.33,1.06.82.08.37-.04.72-.28.96-.19.19-.45.31-.73.31h-4.12c-.5,0-.98.24-1.28.65l-3.84,5.2c-.63.85-.02,2.06,1.04,2.06h.27c30.25,0,47.09-24.52,47.09-54.77h-7.8c-1.47,0-2.83.73-3.65,1.95l-3.51,5.25c-.63.95-1.7,1.52-2.84,1.52h-7.5c-.57,0-1.04-.47-1.04-1.04,0-.29.12-.54.3-.73.19-.19.45-.31.73-.31h6.69c.44,0,.84-.22,1.09-.58l3.22-4.74c.45-.66-.02-1.55-.82-1.55h-21.65c-10.74,0-21.26,3.44-29.75,10.03-9.92,7.71-19.34,21.28-20.06,45.03v50.57M112.91,9.09h-5.5c-.31,0-.58-.13-.79-.32-.2-.2-.32-.48-.32-.79,0-.61.5-1.11,1.11-1.11h5.5c.31,0,.58.13.79.32.2.2.32.48.32.79,0,.61-.5,1.11-1.11,1.11Z"/>
        <circle class="cls-1" cx="102.58" cy="34.29" r="2"/>
        <circle class="cls-1" cx="78.58" cy="22.39" r="2"/>
        <path class="cls-1" d="m98.55,6.7c0,.91-.84,1.66-1.87,1.66s-1.87-.74-1.87-1.66.84-1.66,1.87-1.66,1.87.74,1.87,1.66Z"/>
        <path class="cls-1" d="m98.55,6.7c0,.91-.84,1.66-1.87,1.66s-1.87-.74-1.87-1.66.84-1.66,1.87-1.66,1.87.74,1.87,1.66Z"/>
        <circle class="cls-1" cx="130.72" cy="19.62" r="1.61"/>
        <path class="cls-1" d="m116.02,19.79c0,1.77-1.75,3.2-3.92,3.2s-3.92-1.43-3.92-3.2,1.75-3.19,3.92-3.19,3.92,1.43,3.92,3.19Z"/>
        <path class="cls-1" d="m116.02,19.79c0,1.77-1.75,3.2-3.92,3.2s-3.92-1.43-3.92-3.2,1.75-3.19,3.92-3.19,3.92,1.43,3.92,3.19Z"/>
        <path class="cls-1" d="m93.21,99.31v15.34c0,1.17-.4,2.29-1.11,3.18-.39-.49-.88-.92-1.44-1.24l-13.29-7.67c-.77-.45-1.63-.67-2.49-.68v-.31c.86,0,1.72-.23,2.49-.68l13.29-7.67c.95-.55,1.68-1.37,2.11-2.34.29.65.45,1.35.45,2.08Z"/>
        <path class="cls-1" d="m74.88,107.93v.31c-.9-.01-1.8.21-2.61.68l-13.29,7.67c-.56.32-1.05.75-1.44,1.24-.71-.89-1.11-2.01-1.11-3.18v-15.34c0-.73.16-1.43.45-2.08.43.97,1.16,1.79,2.11,2.34l13.29,7.67c.81.47,1.71.69,2.61.68Z"/>
        <path class="cls-3" d="m91.79,94.75c1.87,1.09,1.87,3.87,0,4.97-.01,0-.02.01-.03.02l-14.21,8.21c-.82.48-1.74.72-2.66.73-.97.01-1.93-.23-2.79-.73l-14.21-8.21s-.02-.01-.03-.02c-1.86-1.1-1.86-3.88,0-4.97.01,0,.02-.01.03-.02l14.21-8.21c.87-.5,1.83-.74,2.79-.73.92,0,1.84.26,2.66.73l14.21,8.21s.02.01.03.02Z"/>
        <path class="cls-3" d="m92.1,117.84c-.39.49-.88.91-1.44,1.24l-13.29,7.67c-.77.44-1.63.67-2.49.68v-19.18c.86,0,1.72.23,2.49.68l13.29,7.67c.56.32,1.05.75,1.44,1.24Z"/>
        <path class="cls-2" d="m74.88,108.24v19.18c-.9.01-1.8-.21-2.61-.68l-13.29-7.67c-.56-.32-1.05-.75-1.44-1.24.39-.49.88-.92,1.44-1.24l13.29-7.67c.81-.47,1.71-.69,2.61-.68Z"/>
      </g>
    </g>
  </g>
</svg>