<svg width="126" height="212" viewBox="0 0 126 212" fill="red" xmlns="http://www.w3.org/2000/svg">
<path d="M-71.9952 106.968C-75.7263 106.684 -79.5964 106.389 -83.6105 106.088C-78.9088 105.735 -74.4048 105.389 -70.0903 105.058C-51.4187 103.624 -36.2966 102.463 -24.0709 102.184C-9.27731 101.847 1.17962 102.808 8.50825 106.083C1.17746 109.281 -9.28107 110.242 -24.0716 109.926C-36.7101 109.656 -52.4446 108.457 -71.9952 106.968ZM19.032 14.0049C19.3162 10.2738 19.611 6.40369 19.912 2.3896C20.2649 7.09121 20.6108 11.5952 20.9421 15.9097C22.3759 34.5813 23.5372 49.7034 23.8159 61.9291C24.153 76.7227 23.1922 87.1796 19.9174 94.5082C16.7188 87.1775 15.758 76.7189 16.074 61.9284C16.3441 49.2899 17.5427 33.5555 19.032 14.0049ZM20.088 209.61C19.7351 204.909 19.3892 200.405 19.0579 196.09C17.6241 177.419 16.4628 162.297 16.1841 150.071C15.847 135.277 16.8078 124.82 20.0826 117.492C23.2812 124.823 24.242 135.281 23.926 150.072C23.6559 162.71 22.4573 178.445 20.968 197.995C20.6838 201.726 20.389 205.596 20.088 209.61ZM108.907 104.844C113.93 105.215 119.213 105.605 124.769 106.001C119.647 106.384 114.758 106.76 110.09 107.118C91.4186 108.552 76.2966 109.713 64.0709 109.992C49.2691 110.329 38.8088 109.367 31.4796 106.088C38.809 102.809 49.2693 101.846 64.0716 102.162C76.0383 102.418 90.7791 103.506 108.907 104.844ZM-43.4772 170.886C-46.6755 173.631 -50.0088 176.491 -53.4773 179.477C-50.4913 176.009 -47.6308 172.676 -44.8863 169.477C-32.493 155.036 -22.4627 143.348 -13.9004 134.398C-3.65534 123.689 4.42357 116.973 11.8608 114.139C9.027 121.576 2.31089 129.655 -8.39799 139.9C-17.3478 148.463 -29.0357 158.493 -43.4772 170.886ZM84.886 169.477C87.6307 172.676 90.4912 176.009 93.4774 179.477C90.0089 176.491 86.6755 173.631 83.4772 170.886C69.0358 158.493 57.3478 148.463 48.398 139.9C37.6891 129.655 30.973 121.576 28.1392 114.139C35.5764 116.973 43.6553 123.689 53.9005 134.398C62.4626 143.348 72.4929 155.036 84.886 169.477ZM83.4775 41.1137C86.6757 38.3692 90.0089 35.5087 93.4773 32.5227C90.4912 35.9912 87.6306 39.3245 84.886 42.5228C72.4928 56.9643 62.4626 68.6522 53.9005 77.602C43.6553 88.3109 35.5764 95.027 28.1392 97.8608C30.973 90.4236 37.6891 82.3447 48.398 72.0996C57.3478 63.5373 69.0359 53.507 83.4775 41.1137ZM-44.8862 42.5226C-47.6308 39.3244 -50.4912 35.9911 -53.4773 32.5227C-50.0089 35.5088 -46.6756 38.3692 -43.4774 41.1138C-29.0359 53.507 -17.3478 63.5373 -8.39799 72.0996C2.31089 82.3447 9.027 90.4236 11.8608 97.8608C4.42357 95.027 -3.65534 88.3109 -13.9004 77.602C-22.4627 68.6522 -32.493 56.9641 -44.8862 42.5226ZM-70.8765 70.6618C-67.1819 71.7852 -63.6198 72.8633 -60.1875 73.9022C-42.6642 79.2059 -28.5213 83.4865 -17.383 87.5335C-4.31287 92.2825 4.53058 96.6809 9.82589 101.964C2.36711 102.328 -7.1104 99.6026 -19.9496 94.2863C-30.4563 89.9357 -43.1546 83.8775 -58.7664 76.4294C-62.6218 74.5901 -66.6549 72.666 -70.8765 70.6618ZM50.7633 24.6522C52.089 21.8897 53.4574 19.0384 54.8669 16.0946C53.8495 19.4431 52.8693 22.6816 51.9218 25.8122C46.618 43.3356 42.3374 57.4786 38.2903 68.617C33.5447 81.6779 29.1491 90.5181 23.8706 95.8147C23.5863 88.355 26.3136 78.8791 31.6256 66.0504C36.2134 54.9709 42.7006 41.453 50.7633 24.6522ZM-15.473 197.337C-13.9523 192.396 -12.5162 187.691 -11.1502 183.216C-6.2185 167.058 -2.19932 153.89 1.59972 143.405C6.32884 130.352 10.6862 121.552 15.9639 116.339C16.3311 123.8 13.6053 133.28 8.28627 146.126C3.93568 156.632 -2.12246 169.331 -9.5706 184.943C-11.4512 188.884 -13.4203 193.012 -15.473 197.337ZM98.7664 135.571C102.622 137.41 106.655 139.334 110.877 141.338C107.182 140.215 103.62 139.137 100.188 138.098C82.6647 132.794 68.5215 128.514 57.3831 124.466C44.3129 119.718 35.4694 115.319 30.1741 110.036C37.6329 109.672 47.1104 112.397 59.9496 117.714C70.4563 122.064 83.1546 128.122 98.7664 135.571ZM-69.6271 145.478C-65.3191 143.199 -61.2112 141.015 -57.2912 138.931C-42.0596 130.834 -29.6639 124.244 -19.3789 119.444C-6.77026 113.56 2.57857 110.412 10.0259 110.437C4.9761 115.982 -3.65798 120.764 -16.5008 126.082C-27.1805 130.504 -40.7084 135.274 -57.4015 141.159C-61.3025 142.535 -65.3764 143.971 -69.6271 145.478ZM59.4781 195.627C57.0595 191.055 54.7478 186.711 52.5491 182.578C44.6262 167.688 38.1682 155.551 33.4442 145.445C27.5577 132.852 24.4085 123.5 24.4375 115.974C29.982 121.024 34.764 129.658 40.0819 142.501C44.5041 153.181 49.2737 166.708 55.1592 183.402C56.5347 187.303 57.971 191.376 59.4781 195.627ZM59.9799 197.03C59.9789 197.029 59.9779 197.027 59.977 197.025L59.9799 197.03ZM111.03 66.0201C111.029 66.0211 111.027 66.0221 111.025 66.023L111.03 66.0201ZM109.627 66.5219C105.055 68.9406 100.711 71.2521 96.5785 73.4509C81.6879 81.3738 69.5506 87.8318 59.4447 92.5558C46.8516 98.4423 37.5003 101.592 29.9741 101.563C35.0239 96.018 43.658 91.236 56.5008 85.9181C67.1807 81.4958 80.709 76.7261 97.4025 70.8404C101.303 69.4651 105.377 68.0289 109.627 66.5219ZM-19.4781 16.3728C-17.0594 20.9447 -14.7478 25.2892 -12.5491 29.4216C-4.62615 44.3122 1.8318 56.4494 6.55577 66.5553C12.4423 79.1484 15.5915 88.4997 15.5626 96.0258C10.018 90.9761 5.23602 82.342 -0.0818634 69.4992C-4.50417 58.8193 -9.27387 45.291 -15.1596 28.5976C-16.5349 24.6968 -17.9711 20.6232 -19.4781 16.3728Z" stroke="white" stroke-opacity="0.2"/>
</svg>
